# xmcd
#
# Track frame offsets:
#	150
#	14545
#	29990
#	45575
#	59089
#	74490
#	88202
#	100522
#	109765
#	127785
#	140722
#
# Disc length: 2127 seconds
#
# Revision: 1
# Processed by: cddbd v1.5.2PL0 Copyright (c) Steve Scherf et al.
# Submitted via: audiograbber 1.83.01
#
DISCID=a2084d0b
DTITLE=Rebecca Turner - Slowpoke Rebecca Turner
DYEAR=2009
DGENRE=Country
TTITLE0=Listen
TTITLE1=Tough Crowd
TTITLE2=The Way She Is Now
TTITLE3=Not To Late
TTITLE4=Comfort You Up
TTITLE5=Brooklyn, Is So Big
TTITLE6=Knocks
TTITLE7=Noboddy Understands It
TTITLE8=Cincinnate
TTITLE9=Sleep Duet
TTITLE10=Some Of My Love
EXTD=
EXTT0=
EXTT1=
EXTT2=
EXTT3=
EXTT4=
EXTT5=
EXTT6=
EXTT7=
EXTT8=
EXTT9=
EXTT10=
PLAYORDER=
